# xmcd CD database file generated by RipIT.
#
# Track frame offsets:
#       150
#       2262
#       19012
#       31790
#       46137
#       55930
#       68289
#       86517
#       103111
#       127339
#       144446
#       164489
#       174911
#       206302
#       225000
#
# Disc length: 3236 seconds
#
# Revision: 1
# Processed by: cddbd v1.5.1PL2 Copyright (c) Steve Scherf et al.
# Submitted via: RipIT 3.4 www.suwald.com/ripit/ripit.html at Tue Feb 14 11:54:58 CET 2006.
#
DISCID=a90ca20f
DTITLE=Faithless - No Roots
DYEAR=2004
DGENRE=Trip-Hop
TTITLE0=Intro
TTITLE1=Mass Destruction
TTITLE2=I Want More: Part 1
TTITLE3=I Want More: Part 2
TTITLE4=Love Lives On My Street
TTITLE5=Bluegrass
TTITLE6=Sweep
TTITLE7=Miss U Less, See U More
TTITLE8=No Roots
TTITLE9=Swingers
TTITLE10=Pastoral
TTITLE11=Everything Will Be Allright Tomorrow
TTITLE12=What About Love
TTITLE13=In The End
TTITLE14=Mass Destruction: P*Nut And Sister Bliss Mix
EXTD=
EXTT0=
EXTT1=
EXTT2=
EXTT3=
EXTT4=
EXTT5=
EXTT6=
EXTT7=
EXTT8=
EXTT9=
EXTT10=
EXTT11=
EXTT12=
EXTT13=
EXTT14=
PLAYORDER=
